MutatorSansInstance_400-500.ufo
<glyph name="comma" format="2">
  <advance width="251"/>
  <unicode hex="002C"/>
  <outline>
    <contour>
      <point x="179" y="0" type="line"/>
      <point x="179" y="222" type="line"/>
      <point x="73" y="222" type="line"/>
      <point x="73" y="0" type="line"/>
      <point x="123" y="-11" type="line"/>
      <point x="114" y="12" type="line"/>
      <point x="92" y="-113" type="line"/>
      <point x="128" y="-115" type="line"/>
    </contour>
  </outline>
</glyph>
<glyph name="A" format="2">
  <advance width="886"/>
  <unicode hex="0041"/>
  <outline>
    <contour>
      <point x="30" y="0" type="line"/>
      <point x="170" y="0" type="line"/>
      <point x="438" y="740" type="line"/>
      <point x="317" y="740" type="line"/>
    </contour>
    <contour>
      <point x="163" y="164" type="line"/>
      <point x="688" y="164" type="line"/>
      <point x="688" y="270" type="line"/>
      <point x="163" y="270" type="line"/>
    </contour>
    <contour>
      <point x="667" y="0" type="line"/>
      <point x="858" y="0" type="line"/>
      <point x="570" y="740" type="line"/>
      <point x="390" y="740" type="line"/>
    </contour>
    <contour>
      <point x="346" y="614" type="line"/>
      <point x="520" y="614" type="line"/>
      <point x="520" y="740" type="line"/>
      <point x="346" y="740" type="line"/>
    </contour>
  </outline>
</glyph>
<glyph name="B" format="2">
  <advance width="887"/>
  <unicode hex="0042"/>
  <outline>
    <contour>
      <point x="72" y="0" type="line"/>
      <point x="242" y="0" type="line"/>
      <point x="242" y="740" type="line"/>
      <point x="72" y="740" type="line"/>
    </contour>
    <contour>
      <point x="212" y="337" type="line"/>
      <point x="552" y="337" type="line" smooth="yes"/>
      <point x="634" y="337"/>
      <point x="676" y="295"/>
      <point x="676" y="225" type="curve" smooth="yes"/>
      <point x="676" y="156"/>
      <point x="633" y="117"/>
      <point x="549" y="117" type="curve" smooth="yes"/>
      <point x="212" y="117" type="line"/>
      <point x="212" y="0" type="line"/>
      <point x="588" y="0" type="line" smooth="yes"/>
      <point x="784" y="0"/>
      <point x="845" y="86"/>
      <point x="845" y="202" type="curve" smooth="yes"/>
      <point x="845" y="306"/>
      <point x="789" y="376"/>
      <point x="678" y="391" type="curve"/>
      <point x="670" y="359" type="line"/>
      <point x="756" y="378"/>
      <point x="813" y="441"/>
      <point x="813" y="535" type="curve" smooth="yes"/>
      <point x="813" y="655"/>
      <point x="750" y="740"/>
      <point x="553" y="740" type="curve" smooth="yes"/>
      <point x="212" y="740" type="line"/>
      <point x="212" y="628" type="line"/>
      <point x="521" y="628" type="line" smooth="yes"/>
      <point x="608" y="628"/>
      <point x="646" y="588"/>
      <point x="646" y="520" type="curve" smooth="yes"/>
      <point x="646" y="449"/>
      <point x="604" y="411"/>
      <point x="521" y="411" type="curve" smooth="yes"/>
      <point x="212" y="411" type="line"/>
    </contour>
  </outline>
</glyph>
<glyph name="C" format="2">
  <advance width="980"/>
  <unicode hex="0043"/>
  <outline>
    <contour>
      <point x="762" y="310" type="line"/>
      <point x="742" y="170"/>
      <point x="652" y="117"/>
      <point x="514" y="117" type="curve" smooth="yes"/>
      <point x="475" y="117" type="line" smooth="yes"/>
      <point x="321" y="117"/>
      <point x="226" y="188"/>
      <point x="226" y="372" type="curve" smooth="yes"/>
      <point x="226" y="555"/>
      <point x="321" y="623"/>
      <point x="475" y="623" type="curve" smooth="yes"/>
      <point x="514" y="623" type="line" smooth="yes"/>
      <point x="651" y="623"/>
      <point x="741" y="572"/>
      <point x="761" y="436" type="curve"/>
      <point x="928" y="454" type="line"/>
      <point x="898" y="658"/>
      <point x="748" y="750"/>
      <point x="526" y="750" type="curve" smooth="yes"/>
      <point x="463" y="750" type="line" smooth="yes"/>
      <point x="210" y="750"/>
      <point x="51" y="635"/>
      <point x="51" y="372" type="curve" smooth="yes"/>
      <point x="51" y="108"/>
      <point x="210" y="-10"/>
      <point x="463" y="-10" type="curve" smooth="yes"/>
      <point x="526" y="-10" type="line" smooth="yes"/>
      <point x="750" y="-10"/>
      <point x="900" y="85"/>
      <point x="929" y="293" type="curve"/>
    </contour>
  </outline>
</glyph>
<glyph name="D" format="2">
  <advance width="893"/>
  <unicode hex="0044"/>
  <outline>
    <contour>
      <point x="72" y="0" type="line"/>
      <point x="238" y="0" type="line"/>
      <point x="238" y="740" type="line"/>
      <point x="72" y="740" type="line"/>
    </contour>
    <contour>
      <point x="206" y="617" type="line"/>
      <point x="406" y="617" type="line" smooth="yes"/>
      <point x="566" y="617"/>
      <point x="667" y="555"/>
      <point x="667" y="372" type="curve" smooth="yes"/>
      <point x="667" y="188"/>
      <point x="566" y="123"/>
      <point x="406" y="123" type="curve" smooth="yes"/>
      <point x="205" y="123" type="line"/>
      <point x="205" y="0" type="line"/>
      <point x="418" y="0" type="line" smooth="yes"/>
      <point x="676" y="0"/>
      <point x="842" y="110"/>
      <point x="842" y="372" type="curve" smooth="yes"/>
      <point x="842" y="633"/>
      <point x="676" y="740"/>
      <point x="418" y="740" type="curve" smooth="yes"/>
      <point x="206" y="740" type="line"/>
    </contour>
  </outline>
</glyph>
<glyph name="E" format="2">
  <advance width="806"/>
  <unicode hex="0045"/>
  <anchor x="400" y="784" name="top"/>
  <outline>
    <contour>
      <point x="74" y="0" type="line"/>
      <point x="240" y="0" type="line"/>
      <point x="240" y="740" type="line"/>
      <point x="74" y="740" type="line"/>
    </contour>
    <contour>
      <point x="122" y="610" type="line"/>
      <point x="740" y="610" type="line"/>
      <point x="740" y="740" type="line"/>
      <point x="122" y="740" type="line"/>
    </contour>
    <contour>
      <point x="122" y="0" type="line"/>
      <point x="740" y="0" type="line"/>
      <point x="740" y="130" type="line"/>
      <point x="122" y="130" type="line"/>
    </contour>
    <contour>
      <point x="122" y="326" type="line"/>
      <point x="648" y="326" type="line"/>
      <point x="648" y="416" type="line"/>
      <point x="122" y="416" type="line"/>
    </contour>
  </outline>
</glyph>
<glyph name="F" format="2">
  <advance width="819"/>
  <unicode hex="0046"/>
  <outline>
    <contour>
      <point x="72" y="0" type="line"/>
      <point x="244" y="0" type="line"/>
      <point x="244" y="740" type="line"/>
      <point x="72" y="740" type="line"/>
    </contour>
    <contour>
      <point x="122" y="614" type="line"/>
      <point x="747" y="614" type="line"/>
      <point x="747" y="740" type="line"/>
      <point x="122" y="740" type="line"/>
    </contour>
    <contour>
      <point x="122" y="284" type="line"/>
      <point x="709" y="284" type="line"/>
      <point x="709" y="394" type="line"/>
      <point x="122" y="394" type="line"/>
    </contour>
  </outline>
</glyph>
<glyph name="G" format="2">
  <advance width="1012"/>
  <unicode hex="0047"/>
  <outline>
    <contour>
      <point x="428" y="304" type="line"/>
      <point x="790" y="304" type="line"/>
      <point x="790" y="216" type="line"/>
      <point x="858" y="0" type="line"/>
      <point x="944" y="0" type="line"/>
      <point x="944" y="366" type="line"/>
      <point x="428" y="366" type="line"/>
    </contour>
    <contour>
      <point x="780" y="318" type="line"/>
      <point x="761" y="172"/>
      <point x="670" y="117"/>
      <point x="529" y="117" type="curve" smooth="yes"/>
      <point x="475" y="117" type="line" smooth="yes"/>
      <point x="321" y="117"/>
      <point x="226" y="188"/>
      <point x="226" y="372" type="curve" smooth="yes"/>
      <point x="226" y="555"/>
      <point x="324" y="623"/>
      <point x="481" y="623" type="curve" smooth="yes"/>
      <point x="535" y="623" type="line" smooth="yes"/>
      <point x="672" y="623"/>
      <point x="760" y="572"/>
      <point x="780" y="436" type="curve"/>
      <point x="941" y="454" type="line"/>
      <point x="911" y="658"/>
      <point x="765" y="750"/>
      <point x="544" y="750" type="curve" smooth="yes"/>
      <point x="465" y="750" type="line" smooth="yes"/>
      <point x="212" y="750"/>
      <point x="51" y="635"/>
      <point x="51" y="372" type="curve" smooth="yes"/>
      <point x="51" y="108"/>
      <point x="210" y="-10"/>
      <point x="463" y="-10" type="curve" smooth="yes"/>
      <point x="505" y="-10" type="line" smooth="yes"/>
      <point x="728" y="-10"/>
      <point x="870" y="87"/>
      <point x="896" y="301" type="curve"/>
    </contour>
  </outline>
</glyph>
<glyph name="H" format="2">
  <advance width="902"/>
  <unicode hex="0048"/>
  <outline>
    <contour>
      <point x="72" y="0" type="line"/>
      <point x="244" y="0" type="line"/>
      <point x="244" y="740" type="line"/>
      <point x="72" y="740" type="line"/>
    </contour>
    <contour>
      <point x="141" y="306" type="line"/>
      <point x="763" y="306" type="line"/>
      <point x="763" y="432" type="line"/>
      <point x="141" y="432" type="line"/>
    </contour>
    <contour>
      <point x="658" y="0" type="line"/>
      <point x="830" y="0" type="line"/>
      <point x="830" y="740" type="line"/>
      <point x="658" y="740" type="line"/>
    </contour>
  </outline>
</glyph>
<glyph name="I" format="2">
  <advance width="691"/>
  <unicode hex="0049"/>
  <outline>
    <contour>
      <point x="261" y="0" type="line"/>
      <point x="433" y="0" type="line"/>
      <point x="433" y="740" type="line"/>
      <point x="261" y="740" type="line"/>
    </contour>
    <contour>
      <point x="72" y="608" type="line"/>
      <point x="619" y="608" type="line"/>
      <point x="619" y="740" type="line"/>
      <point x="72" y="740" type="line"/>
    </contour>
    <contour>
      <point x="72" y="0" type="line"/>
      <point x="619" y="0" type="line"/>
      <point x="619" y="132" type="line"/>
      <point x="72" y="132" type="line"/>
    </contour>
  </outline>
</glyph>
<glyph name="J" format="2">
  <advance width="687"/>
  <unicode hex="004A"/>
  <outline>
    <contour>
      <point x="212" y="-10" type="curve" smooth="yes"/>
      <point x="461" y="-10"/>
      <point x="615" y="95"/>
      <point x="615" y="327" type="curve" smooth="yes"/>
      <point x="615" y="740" type="line"/>
      <point x="440" y="740" type="line"/>
      <point x="440" y="347" type="line" smooth="yes"/>
      <point x="440" y="188"/>
      <point x="351" y="127"/>
      <point x="205" y="127" type="curve" smooth="yes"/>
      <point x="171" y="127"/>
      <point x="134" y="130"/>
      <point x="98" y="138" type="curve"/>
      <point x="72" y="5" type="line"/>
      <point x="114" y="-5"/>
      <point x="161" y="-10"/>
    </contour>
  </outline>
</glyph>
<glyph name="K" format="2">
  <advance width="861"/>
  <unicode hex="004B"/>
  <outline>
    <contour>
      <point x="72" y="0" type="line"/>
      <point x="244" y="0" type="line"/>
      <point x="244" y="740" type="line"/>
      <point x="72" y="740" type="line"/>
    </contour>
    <contour>
      <point x="192" y="314" type="line"/>
      <point x="281" y="314" type="line"/>
      <point x="606" y="0" type="line"/>
      <point x="825" y="0" type="line"/>
      <point x="417" y="422" type="line"/>
      <point x="291" y="390" type="line"/>
      <point x="192" y="390" type="line"/>
    </contour>
    <contour>
      <point x="264" y="370" type="line"/>
      <point x="376" y="319" type="line"/>
      <point x="819" y="740" type="line"/>
      <point x="622" y="740" type="line"/>
    </contour>
  </outline>
</glyph>
<glyph name="L" format="2">
  <advance width="726"/>
  <unicode hex="004C"/>
  <outline>
    <contour>
      <point x="72" y="0" type="line"/>
      <point x="244" y="0" type="line"/>
      <point x="244" y="740" type="line"/>
      <point x="72" y="740" type="line"/>
    </contour>
    <contour>
      <point x="122" y="0" type="line"/>
      <point x="697" y="0" type="line"/>
      <point x="697" y="128" type="line"/>
      <point x="122" y="128" type="line"/>
    </contour>
  </outline>
</glyph>
<glyph name="M" format="2">
  <advance width="955"/>
  <unicode hex="004D"/>
  <outline>
    <contour>
      <point x="72" y="0" type="line"/>
      <point x="210" y="0" type="line"/>
      <point x="210" y="740" type="line"/>
      <point x="72" y="740" type="line"/>
    </contour>
    <contour>
      <point x="883" y="0" type="line"/>
      <point x="883" y="740" type="line"/>
      <point x="745" y="740" type="line"/>
      <point x="745" y="0" type="line"/>
    </contour>
    <contour>
      <point x="808" y="561" type="line"/>
      <point x="745" y="740" type="line"/>
      <point x="459" y="400" type="line"/>
      <point x="496" y="400" type="line"/>
      <point x="210" y="740" type="line"/>
      <point x="148" y="561" type="line"/>
      <point x="447" y="213" type="line"/>
      <point x="508" y="213" type="line"/>
    </contour>
  </outline>
</glyph>
<glyph name="N" format="2">
  <advance width="909"/>
  <unicode hex="004E"/>
  <outline>
    <contour>
      <point x="72" y="0" type="line"/>
      <point x="208" y="0" type="line"/>
      <point x="208" y="740" type="line"/>
      <point x="72" y="740" type="line"/>
    </contour>
    <contour>
      <point x="138" y="588" type="line"/>
      <point x="700" y="0" type="line"/>
      <point x="771" y="152" type="line"/>
      <point x="208" y="740" type="line"/>
    </contour>
    <contour>
      <point x="700" y="0" type="line"/>
      <point x="837" y="0" type="line"/>
      <point x="837" y="740" type="line"/>
      <point x="700" y="740" type="line"/>
    </contour>
  </outline>
</glyph>
<glyph name="O" format="2">
  <advance width="992"/>
  <unicode hex="004F"/>
  <outline>
    <contour>
      <point x="463" y="-10" type="curve" smooth="yes"/>
      <point x="529" y="-10" type="line" smooth="yes"/>
      <point x="782" y="-10"/>
      <point x="941" y="108"/>
      <point x="941" y="372" type="curve" smooth="yes"/>
      <point x="941" y="635"/>
      <point x="782" y="750"/>
      <point x="529" y="750" type="curve" smooth="yes"/>
      <point x="463" y="750" type="line" smooth="yes"/>
      <point x="210" y="750"/>
      <point x="51" y="635"/>
      <point x="51" y="372" type="curve" smooth="yes"/>
      <point x="51" y="108"/>
      <point x="210" y="-10"/>
    </contour>
    <contour>
      <point x="475" y="117" type="line" smooth="yes"/>
      <point x="321" y="117"/>
      <point x="226" y="188"/>
      <point x="226" y="372" type="curve" smooth="yes"/>
      <point x="226" y="555"/>
      <point x="321" y="623"/>
      <point x="475" y="623" type="curve" smooth="yes"/>
      <point x="517" y="623" type="line" smooth="yes"/>
      <point x="672" y="623"/>
      <point x="767" y="555"/>
      <point x="767" y="372" type="curve" smooth="yes"/>
      <point x="767" y="188"/>
      <point x="672" y="117"/>
      <point x="517" y="117" type="curve" smooth="yes"/>
    </contour>
  </outline>
</glyph>
<glyph name="P" format="2">
  <advance width="834"/>
  <unicode hex="0050"/>
  <outline>
    <contour>
      <point x="72" y="0" type="line"/>
      <point x="244" y="0" type="line"/>
      <point x="244" y="740" type="line"/>
      <point x="72" y="740" type="line"/>
    </contour>
    <contour>
      <point x="184" y="608" type="line"/>
      <point x="450" y="608" type="line" smooth="yes"/>
      <point x="596" y="608"/>
      <point x="647" y="549"/>
      <point x="647" y="448" type="curve" smooth="yes"/>
      <point x="647" y="343"/>
      <point x="596" y="287"/>
      <point x="450" y="287" type="curve" smooth="yes"/>
      <point x="184" y="287" type="line"/>
      <point x="184" y="154" type="line"/>
      <point x="442" y="154" type="line" smooth="yes"/>
      <point x="725" y="154"/>
      <point x="805" y="270"/>
      <point x="805" y="448" type="curve" smooth="yes"/>
      <point x="805" y="625"/>
      <point x="725" y="740"/>
      <point x="443" y="740" type="curve" smooth="yes"/>
      <point x="184" y="740" type="line"/>
    </contour>
  </outline>
</glyph>
<glyph name="Q" format="2">
  <advance width="992"/>
  <unicode hex="0051"/>
  <outline>
    <contour>
      <point x="505" y="-130" type="line"/>
      <point x="678" y="-130" type="line"/>
      <point x="568" y="76" type="line"/>
      <point x="409" y="65" type="line"/>
    </contour>
    <component base="O"/>
  </outline>
</glyph>
<glyph name="R" format="2">
  <advance width="857"/>
  <unicode hex="0052"/>
  <outline>
    <contour>
      <point x="620" y="0" type="line"/>
      <point x="804" y="0" type="line"/>
      <point x="718" y="128" type="line" smooth="yes"/>
      <point x="672" y="186"/>
      <point x="635" y="217"/>
      <point x="584" y="217" type="curve"/>
      <point x="476" y="217" type="line"/>
    </contour>
    <contour>
      <point x="72" y="0" type="line"/>
      <point x="244" y="0" type="line"/>
      <point x="244" y="740" type="line"/>
      <point x="72" y="740" type="line"/>
    </contour>
    <contour>
      <point x="184" y="608" type="line"/>
      <point x="455" y="608" type="line" smooth="yes"/>
      <point x="598" y="608"/>
      <point x="648" y="549"/>
      <point x="648" y="448" type="curve" smooth="yes"/>
      <point x="648" y="343"/>
      <point x="598" y="287"/>
      <point x="455" y="287" type="curve" smooth="yes"/>
      <point x="184" y="287" type="line"/>
      <point x="184" y="179" type="line"/>
      <point x="446" y="179" type="line" smooth="yes"/>
      <point x="725" y="179"/>
      <point x="807" y="291"/>
      <point x="807" y="460" type="curve" smooth="yes"/>
      <point x="807" y="629"/>
      <point x="723" y="740"/>
      <point x="444" y="740" type="curve" smooth="yes"/>
      <point x="184" y="740" type="line"/>
    </contour>
  </outline>
</glyph>
<glyph name="S" format="2">
  <advance width="859"/>
  <unicode hex="0053"/>
  <outline>
    <contour>
      <point x="803" y="206" type="curve" smooth="yes"/>
      <point x="802" y="351"/>
      <point x="717" y="405"/>
      <point x="506" y="431" type="curve" smooth="yes"/>
      <point x="388" y="447" type="line" smooth="yes"/>
      <point x="264" y="466"/>
      <point x="213" y="489"/>
      <point x="213" y="543" type="curve" smooth="yes"/>
      <point x="213" y="595"/>
      <point x="267" y="630"/>
      <point x="400" y="630" type="curve" smooth="yes"/>
      <point x="463" y="630" type="line" smooth="yes"/>
      <point x="587" y="630"/>
      <point x="685" y="611"/>
      <point x="762" y="584" type="curve"/>
      <point x="788" y="698" type="line"/>
      <point x="709" y="726"/>
      <point x="592" y="750"/>
      <point x="482" y="750" type="curve" smooth="yes"/>
      <point x="437" y="750" type="line" smooth="yes"/>
      <point x="182" y="750"/>
      <point x="68" y="671"/>
      <point x="68" y="530" type="curve" smooth="yes"/>
      <point x="69" y="396"/>
      <point x="163" y="339"/>
      <point x="363" y="312" type="curve" smooth="yes"/>
      <point x="479" y="297" type="line" smooth="yes"/>
      <point x="607" y="275"/>
      <point x="656" y="259"/>
      <point x="656" y="201" type="curve" smooth="yes"/>
      <point x="656" y="145"/>
      <point x="598" y="110"/>
      <point x="447" y="110" type="curve" smooth="yes"/>
      <point x="387" y="110" type="line" smooth="yes"/>
      <point x="264" y="110"/>
      <point x="159" y="129"/>
      <point x="76" y="159" type="curve"/>
      <point x="52" y="44" type="line"/>
      <point x="138" y="14"/>
      <point x="262" y="-9"/>
      <point x="368" y="-9" type="curve" smooth="yes"/>
      <point x="417" y="-9" type="line" smooth="yes"/>
      <point x="702" y="-9"/>
      <point x="803" y="78"/>
    </contour>
  </outline>
</glyph>
<glyph name="T" format="2">
  <advance width="850"/>
  <unicode hex="0054"/>
  <outline>
    <contour>
      <point x="339" y="0" type="line"/>
      <point x="511" y="0" type="line"/>
      <point x="511" y="740" type="line"/>
      <point x="339" y="740" type="line"/>
    </contour>
    <contour>
      <point x="29" y="606" type="line"/>
      <point x="821" y="606" type="line"/>
      <point x="821" y="740" type="line"/>
      <point x="29" y="740" type="line"/>
    </contour>
  </outline>
</glyph>
<glyph name="U" format="2">
  <advance width="910"/>
  <unicode hex="0055"/>
  <outline>
    <contour>
      <point x="455" y="-10" type="curve" smooth="yes"/>
      <point x="694" y="-10"/>
      <point x="832" y="92"/>
      <point x="832" y="315" type="curve" smooth="yes"/>
      <point x="832" y="740" type="line"/>
      <point x="658" y="740" type="line"/>
      <point x="658" y="305" type="line" smooth="yes"/>
      <point x="658" y="174"/>
      <point x="580" y="123"/>
      <point x="455" y="123" type="curve" smooth="yes"/>
      <point x="330" y="123"/>
      <point x="252" y="174"/>
      <point x="252" y="305" type="curve" smooth="yes"/>
      <point x="252" y="740" type="line"/>
      <point x="78" y="740" type="line"/>
      <point x="78" y="315" type="line" smooth="yes"/>
      <point x="78" y="92"/>
      <point x="215" y="-10"/>
    </contour>
  </outline>
</glyph>
<glyph name="V" format="2">
  <advance width="883"/>
  <unicode hex="0056"/>
  <outline>
    <contour>
      <point x="858" y="740" type="line"/>
      <point x="716" y="740" type="line"/>
      <point x="444" y="0" type="line"/>
      <point x="568" y="0" type="line"/>
    </contour>
    <contour>
      <point x="216" y="740" type="line"/>
      <point x="24" y="740" type="line"/>
      <point x="314" y="0" type="line"/>
      <point x="495" y="0" type="line"/>
    </contour>
    <contour>
      <point x="541" y="126" type="line"/>
      <point x="364" y="126" type="line"/>
      <point x="364" y="0" type="line"/>
      <point x="541" y="0" type="line"/>
    </contour>
  </outline>
</glyph>
<glyph name="W" format="2">
  <advance width="1018"/>
  <unicode hex="0057"/>
  <outline>
    <contour>
      <point x="992" y="740" type="line"/>
      <point x="840" y="740" type="line"/>
      <point x="700" y="145" type="line"/>
      <point x="719" y="145" type="line"/>
      <point x="574" y="740" type="line"/>
      <point x="459" y="740" type="line"/>
      <point x="321" y="142" type="line"/>
      <point x="342" y="142" type="line"/>
      <point x="195" y="740" type="line"/>
      <point x="25" y="740" type="line"/>
      <point x="208" y="0" type="line"/>
      <point x="373" y="0" type="line"/>
      <point x="510" y="564" type="line"/>
      <point x="482" y="564" type="line"/>
      <point x="634" y="0" type="line"/>
      <point x="813" y="0" type="line"/>
    </contour>
  </outline>
</glyph>
<glyph name="X" format="2">
  <advance width="832"/>
  <unicode hex="0058"/>
  <outline>
    <contour>
      <point x="603" y="0" type="line"/>
      <point x="809" y="0" type="line"/>
      <point x="482" y="410" type="line"/>
      <point x="235" y="740" type="line"/>
      <point x="29" y="740" type="line"/>
      <point x="344" y="351" type="line"/>
    </contour>
    <contour>
      <point x="25" y="-1" type="line"/>
      <point x="187" y="0" type="line"/>
      <point x="414" y="332" type="line"/>
      <point x="493" y="339" type="line"/>
      <point x="802" y="740" type="line"/>
      <point x="639" y="740" type="line"/>
      <point x="412" y="424" type="line"/>
      <point x="332" y="412" type="line"/>
    </contour>
  </outline>
</glyph>
<glyph name="Y" format="2">
  <advance width="813"/>
  <unicode hex="0059"/>
  <outline>
    <contour>
      <point x="792" y="740" type="line"/>
      <point x="649" y="740" type="line"/>
      <point x="383" y="205" type="line"/>
      <point x="490" y="196" type="line"/>
    </contour>
    <contour>
      <point x="206" y="740" type="line"/>
      <point x="21" y="740" type="line"/>
      <point x="322" y="196" type="line"/>
      <point x="477" y="205" type="line"/>
    </contour>
    <contour>
      <point x="492" y="270" type="line"/>
      <point x="320" y="270" type="line"/>
      <point x="320" y="0" type="line"/>
      <point x="492" y="0" type="line"/>
    </contour>
  </outline>
</glyph>
<glyph name="Z" format="2">
  <advance width="876"/>
  <unicode hex="005A"/>
  <outline>
    <contour>
      <point x="72" y="128" type="line"/>
      <point x="267" y="95" type="line"/>
      <point x="804" y="612" type="line"/>
      <point x="609" y="645" type="line"/>
    </contour>
    <contour>
      <point x="72" y="612" type="line"/>
      <point x="804" y="612" type="line"/>
      <point x="804" y="740" type="line"/>
      <point x="72" y="740" type="line"/>
    </contour>
    <contour>
      <point x="72" y="0" type="line"/>
      <point x="804" y="0" type="line"/>
      <point x="804" y="128" type="line"/>
      <point x="72" y="128" type="line"/>
    </contour>
  </outline>
</glyph>
